<svg width="64" height="64" viewBox="0 0 64 64" fill="none" xmlns="http://www.w3.org/2000/svg">
<path d="M27.5416 2.29952C28.6036 1.23894 30.0245 0.614878 31.5239 0.550456C33.0234 0.486034 34.4926 0.98593 35.6416 1.95152L36.0256 2.30252L41.7256 7.99952H49.7836C51.2968 7.99979 52.754 8.57183 53.8633 9.60103C54.9727 10.6302 55.6521 12.0406 55.7656 13.5495L55.7836 13.9995V22.0575L61.4836 27.7575C62.545 28.8196 63.1696 30.2411 63.234 31.7413C63.2985 33.2415 62.798 34.7113 61.8316 35.8605L61.4806 36.2415L55.7806 41.9415V49.9995C55.7811 51.5132 55.2094 52.9712 54.1801 54.0812C53.1508 55.1911 51.7401 55.871 50.2306 55.9845L49.7836 55.9995H41.7286L36.0286 61.6995C34.9665 62.7609 33.545 63.3855 32.0448 63.45C30.5446 63.5144 29.0748 63.014 27.9256 62.0475L27.5446 61.6995L21.8446 55.9995H13.7836C12.2699 56 10.8119 55.4283 9.70196 54.399C8.59201 53.3698 7.91213 51.959 7.7986 50.4495L7.7836 49.9995V41.9415L2.0836 36.2415C1.02218 35.1794 0.397595 33.7579 0.333167 32.2577C0.268738 30.7575 0.769155 29.2877 1.7356 28.1385L2.0836 27.7575L7.7836 22.0575V13.9995C7.78388 12.4863 8.35592 11.0291 9.38511 9.91977C10.4143 8.81047 11.8247 8.13101 13.3336 8.01752L13.7836 7.99952H21.8416L27.5416 2.29952ZM31.7836 6.54752L26.0836 12.2475C25.0871 13.2425 23.7724 13.8552 22.3696 13.9785L21.8416 13.9995H13.7836V22.0575C13.784 23.4672 13.288 24.832 12.3826 25.9125L12.0256 26.3025L6.3256 32.0025L12.0256 37.6995C13.0217 38.6956 13.6355 40.0103 13.7596 41.4135L13.7836 41.9415V49.9995H21.8416C23.2513 49.9992 24.6161 50.4952 25.6966 51.4005L26.0866 51.7575L31.7836 57.4575L37.4836 51.7575C38.4797 50.7615 39.7944 50.1476 41.1976 50.0235L41.7256 49.9995H49.7836V41.9415C49.7832 40.5318 50.2792 39.167 51.1846 38.0865L51.5416 37.6965L57.2416 31.9995L51.5416 26.2995C50.5455 25.3035 49.9317 23.9887 49.8076 22.5855L49.7836 22.0575V13.9995H41.7256C40.3159 13.9999 38.9511 13.5039 37.8706 12.5985L37.4806 12.2415L31.7806 6.54152L31.7836 6.54752ZM41.0236 22.9515C41.5635 22.4135 42.2879 22.1011 43.0498 22.0778C43.8116 22.0546 44.5537 22.3222 45.1254 22.8263C45.6971 23.3304 46.0555 24.0332 46.1278 24.7919C46.2001 25.5507 45.9808 26.3085 45.5146 26.9115L45.2626 27.1935L30.6226 41.8335C30.051 42.4058 29.2892 42.7483 28.4817 42.7959C27.6742 42.8434 26.8774 42.5928 26.2426 42.0915L25.9546 41.8365L18.7426 34.6245C18.1988 34.0859 17.8815 33.3598 17.8556 32.5949C17.8296 31.8299 18.097 31.084 18.603 30.5098C19.109 29.9355 19.8154 29.5764 20.5775 29.5059C21.3396 29.4354 22.0998 29.6588 22.7026 30.1305L22.9846 30.3795L28.2886 35.6835L41.0236 22.9515Z" fill="#F4D382"/>
</svg>
