<svg width="16" height="16" viewBox="0 0 16 16" fill="none" xmlns="http://www.w3.org/2000/svg">
<path d="M8.00016 1.3335C4.32016 1.3335 1.3335 4.32016 1.3335 8.00016C1.3335 11.6802 4.32016 14.6668 8.00016 14.6668H11.3335V13.3335H8.00016C5.10683 13.3335 2.66683 10.8935 2.66683 8.00016C2.66683 5.10683 5.10683 2.66683 8.00016 2.66683C10.8935 2.66683 13.3335 5.10683 13.3335 8.00016V8.9535C13.3335 9.48016 12.8602 10.0002 12.3335 10.0002C11.8068 10.0002 11.3335 9.48016 11.3335 8.9535V8.00016C11.3335 6.16016 9.84016 4.66683 8.00016 4.66683C6.16016 4.66683 4.66683 6.16016 4.66683 8.00016C4.66683 9.84016 6.16016 11.3335 8.00016 11.3335C8.92016 11.3335 9.76016 10.9602 10.3602 10.3535C10.7935 10.9468 11.5402 11.3335 12.3335 11.3335C13.6468 11.3335 14.6668 10.2668 14.6668 8.9535V8.00016C14.6668 4.32016 11.6802 1.3335 8.00016 1.3335ZM8.00016 10.0002C6.8935 10.0002 6.00016 9.10683 6.00016 8.00016C6.00016 6.8935 6.8935 6.00016 8.00016 6.00016C9.10683 6.00016 10.0002 6.8935 10.0002 8.00016C10.0002 9.10683 9.10683 10.0002 8.00016 10.0002Z" fill="#68479C"/>
</svg>
