<svg width="68" height="59" viewBox="0 0 68 59" fill="none" xmlns="http://www.w3.org/2000/svg">
<path d="M30.625 45.5C30.625 46.0967 30.3879 46.669 29.966 47.091C29.544 47.5129 28.9717 47.75 28.375 47.75H20.5C19.9033 47.75 19.331 47.5129 18.909 47.091C18.4871 46.669 18.25 46.0967 18.25 45.5C18.25 44.9033 18.4871 44.331 18.909 43.909C19.331 43.4871 19.9033 43.25 20.5 43.25H28.375C28.9717 43.25 29.544 43.4871 29.966 43.909C30.3879 44.331 30.625 44.9033 30.625 45.5ZM47.5 43.25H39.625C39.0283 43.25 38.456 43.4871 38.034 43.909C37.6121 44.331 37.375 44.9033 37.375 45.5C37.375 46.0967 37.6121 46.669 38.034 47.091C38.456 47.5129 39.0283 47.75 39.625 47.75H47.5C48.0967 47.75 48.669 47.5129 49.091 47.091C49.5129 46.669 49.75 46.0967 49.75 45.5C49.75 44.9033 49.5129 44.331 49.091 43.909C48.669 43.4871 48.0967 43.25 47.5 43.25ZM67.75 56.75C67.75 57.3467 67.5129 57.919 67.091 58.341C66.669 58.7629 66.0967 59 65.5 59H2.5C1.90326 59 1.33097 58.7629 0.90901 58.341C0.487053 57.919 0.25 57.3467 0.25 56.75C0.25 56.1533 0.487053 55.581 0.90901 55.159C1.33097 54.7371 1.90326 54.5 2.5 54.5H7V20.75C7 20.3321 7.11636 19.9226 7.33604 19.5671C7.55571 19.2117 7.87003 18.9244 8.24377 18.7375C8.61751 18.5507 9.0359 18.4716 9.45206 18.5091C9.86823 18.5466 10.2657 18.6993 10.6 18.95L25 29.75V20.75C25 20.3321 25.1164 19.9226 25.336 19.5671C25.5557 19.2117 25.87 18.9244 26.2438 18.7375C26.6175 18.5507 27.0359 18.4716 27.4521 18.5091C27.8682 18.5466 28.2657 18.6993 28.6 18.95L39.4956 27.1203L42.7469 4.36437C42.9043 3.29381 43.4404 2.31518 44.2578 1.60614C45.0752 0.897092 46.1198 0.504633 47.2019 0.5H52.2981C53.3802 0.504633 54.4248 0.897092 55.2422 1.60614C56.0596 2.31518 56.5957 3.29381 56.7531 4.36437L60.9719 33.9322C60.9719 33.9322 60.9944 34.1516 60.9944 34.25V54.5H65.4944C65.7903 54.4993 66.0835 54.5569 66.3571 54.6697C66.6308 54.7824 66.8795 54.948 67.089 55.157C67.2985 55.366 67.4648 55.6143 67.5782 55.8877C67.6916 56.161 67.75 56.4541 67.75 56.75ZM43.6019 30.2L46.0009 32H56.1569L52.2981 5H47.2019L43.6019 30.2ZM11.5 54.5H56.5V36.5H45.25C44.7632 36.5 44.2895 36.3421 43.9 36.05L39.85 33.0125L29.5 25.25V34.25C29.5 34.6679 29.3836 35.0774 29.164 35.4329C28.9443 35.7883 28.63 36.0756 28.2562 36.2625C27.8825 36.4493 27.4641 36.5284 27.0479 36.4909C26.6318 36.4534 26.2343 36.3007 25.9 36.05L11.5 25.25V54.5Z" fill="#F4D382"/>
</svg>
