<svg width="60" height="52" viewBox="0 0 60 52" fill="none" xmlns="http://www.w3.org/2000/svg">
<path fill-rule="evenodd" clip-rule="evenodd" d="M38.0213 1.6579C39.5117 1.12832 41.0922 0.898627 42.6717 0.982024C44.2512 1.06542 45.7987 1.46027 47.2251 2.14385C48.6515 2.82743 49.9286 3.78626 50.9831 4.9652C52.0376 6.14413 52.8487 7.51991 53.3696 9.01341C53.8905 10.5069 54.111 12.0887 54.0184 13.6677C53.9258 15.2467 53.522 16.7918 52.8302 18.2142C52.1383 19.6366 51.172 20.9082 49.987 21.9558C48.7457 23.0532 46.8498 22.9365 45.7524 21.6952C44.655 20.4539 44.7717 18.558 46.013 17.4606C46.6055 16.9368 47.0886 16.301 47.4346 15.5898C47.7805 14.8786 47.9824 14.106 48.0287 13.3165C48.075 12.527 47.9647 11.7361 47.7043 10.9894C47.4438 10.2426 47.0383 9.55474 46.5111 8.96527C45.9838 8.3758 45.3452 7.89638 44.632 7.55459C43.9188 7.2128 43.1451 7.01538 42.3553 6.97368C41.5656 6.93198 40.7754 7.04683 40.0301 7.31162C39.2849 7.57641 38.5994 7.98591 38.013 8.51658C36.7845 9.62833 34.8874 9.53369 33.7756 8.3052C32.6639 7.07671 32.7585 5.17957 33.987 4.06783C35.1598 3.00649 36.5308 2.18748 38.0213 1.6579ZM22.013 8.53983C20.8253 7.48986 19.2704 6.95258 17.6878 7.04536C16.1053 7.13814 14.6238 7.85344 13.5669 9.03501C12.5101 10.2166 11.9638 11.7684 12.0473 13.3514C12.1309 14.9345 12.8376 16.4201 14.013 17.4838C15.2415 18.5956 15.3361 20.4927 14.2244 21.7212C13.1126 22.9497 11.2155 23.0443 9.987 21.9326C7.6362 19.8052 6.22284 16.8339 6.05568 13.6678C5.88851 10.5017 6.98112 7.39807 9.09484 5.03494C11.2085 2.67181 14.1716 1.24121 17.3367 1.05565C20.5017 0.870083 23.6116 1.94464 25.987 4.04458C27.2283 5.14197 27.345 7.03788 26.2476 8.27921C25.1502 9.52054 23.2543 9.63722 22.013 8.53983ZM30 16.0002C29.2121 16.0002 28.4319 16.1554 27.7039 16.4569C26.9759 16.7585 26.3145 17.2004 25.7574 17.7576C25.2002 18.3147 24.7583 18.9761 24.4567 19.7041C24.1552 20.4321 24 21.2123 24 22.0002C24 22.7881 24.1552 23.5684 24.4567 24.2963C24.7583 25.0243 25.2002 25.6857 25.7574 26.2428C26.3145 26.8 26.9759 27.242 27.7039 27.5435C28.4319 27.845 29.2121 28.0002 30 28.0002C31.5913 28.0002 33.1174 27.3681 34.2426 26.2428C35.3679 25.1176 36 23.5915 36 22.0002C36 20.4089 35.3679 18.8828 34.2426 17.7576C33.1174 16.6323 31.5913 16.0002 30 16.0002ZM25.4078 10.9136C26.8637 10.3106 28.4241 10.0002 30 10.0002C33.1826 10.0002 36.2348 11.2645 38.4853 13.5149C40.7357 15.7654 42 18.8176 42 22.0002C42 25.1828 40.7357 28.235 38.4853 30.4855C36.2348 32.7359 33.1826 34.0002 30 34.0002C28.4241 34.0002 26.8637 33.6898 25.4078 33.0868C23.9519 32.4837 22.629 31.5998 21.5147 30.4855C20.4004 29.3712 19.5165 28.0483 18.9134 26.5924C18.3104 25.1365 18 23.5761 18 22.0002C18 20.4243 18.3104 18.8639 18.9134 17.408C19.5165 15.9521 20.4004 14.6292 21.5147 13.5149C22.629 12.4006 23.9519 11.5167 25.4078 10.9136ZM14.9019 30.9894C15.3221 32.5921 14.3635 34.2319 12.7608 34.6521C10.4581 35.2559 8.67148 36.207 7.5191 37.2432C6.37489 38.272 6 39.2312 6 40.0002C6 41.6571 4.65685 43.0002 3 43.0002C1.34315 43.0002 0 41.6571 0 40.0002C0 37.0792 1.47611 34.6079 3.5074 32.7815C5.53052 30.9624 8.24393 29.6336 11.2392 28.8483C12.8419 28.4281 14.4817 29.3867 14.9019 30.9894ZM45.0981 30.9894C45.5183 29.3867 47.1581 28.4281 48.7608 28.8483C51.7561 29.6336 54.4695 30.9624 56.4926 32.7815C58.5239 34.6079 60 37.0792 60 40.0002C60 41.6571 58.6569 43.0002 57 43.0002C55.3431 43.0002 54 41.6571 54 40.0002C54 39.2312 53.6251 38.272 52.4809 37.2432C51.3285 36.207 49.5419 35.2559 47.2392 34.6521C45.6365 34.2319 44.6779 32.5921 45.0981 30.9894ZM17.8505 40.0635C21.1054 38.1108 25.4083 37.0002 30 37.0002C34.5917 37.0002 38.8946 38.1108 42.1495 40.0635C45.3447 41.9805 48 45.0468 48 49.0002C48 50.6571 46.6569 52.0002 45 52.0002C43.3431 52.0002 42 50.6571 42 49.0002C42 47.9827 41.2968 46.5489 39.0627 45.2086C36.8884 43.9042 33.6913 43.0002 30 43.0002C26.3087 43.0002 23.1116 43.9042 20.9373 45.2086C18.7032 46.5489 18 47.9827 18 49.0002C18 50.6571 16.6569 52.0002 15 52.0002C13.3431 52.0002 12 50.6571 12 49.0002C12 45.0468 14.6553 41.9805 17.8505 40.0635Z" fill="#F4D382"/>
</svg>
