<svg width="55" height="54" viewBox="0 0 55 54" fill="none" xmlns="http://www.w3.org/2000/svg">
<path d="M9.66617 14.9998L27.6662 23.9998L45.6662 14.9998L27.6662 5.99977L9.66617 14.9998ZM29.1332 0.347773L53.1122 12.5758C54.5702 13.3198 55.0952 15.0058 54.2852 16.3468C54.0027 16.8074 53.5976 17.1804 53.1152 17.4238L29.1332 29.6518C28.6782 29.8812 28.1757 30.0007 27.6662 30.0007C27.1566 30.0007 26.6542 29.8812 26.1992 29.6518L2.22017 17.4238C0.762171 16.6798 0.237171 14.9938 1.04717 13.6528C1.32961 13.1921 1.73474 12.8192 2.21717 12.5758L26.1992 0.347773C27.1112 -0.117227 28.2212 -0.117227 29.1332 0.347773ZM29.1332 41.6458C28.6793 41.879 28.1764 42.0006 27.6662 42.0006C27.1559 42.0006 26.653 41.879 26.1992 41.6458L2.22017 29.2048C0.762171 28.4488 0.237171 26.7328 1.04717 25.3708C1.32776 24.9041 1.73293 24.5249 2.21717 24.2758C2.56694 24.0938 2.9554 23.9988 3.34967 23.9988C3.74394 23.9988 4.1324 24.0938 4.48217 24.2758L26.2022 35.5408C27.1112 36.0148 28.2212 36.0148 29.1332 35.5408L50.8502 24.2758C51.1996 24.0943 51.5875 23.9996 51.9812 23.9996C52.3749 23.9996 52.7628 24.0943 53.1122 24.2758C54.5702 25.0318 55.0952 26.7478 54.2852 28.1098C54.0046 28.5765 53.5994 28.9557 53.1152 29.2048L29.1332 41.6458ZM29.1332 53.6458C28.6793 53.879 28.1764 54.0006 27.6662 54.0006C27.1559 54.0006 26.653 53.879 26.1992 53.6458L2.22017 41.2048C0.762171 40.4488 0.237171 38.7328 1.04717 37.3708C1.32776 36.9041 1.73293 36.5249 2.21717 36.2758C2.56694 36.0938 2.9554 35.9988 3.34967 35.9988C3.74394 35.9988 4.1324 36.0938 4.48217 36.2758L26.2022 47.5408C27.1112 48.0148 28.2212 48.0148 29.1332 47.5408L50.8502 36.2758C51.1996 36.0943 51.5875 35.9996 51.9812 35.9996C52.3749 35.9996 52.7628 36.0943 53.1122 36.2758C54.5702 37.0318 55.0952 38.7478 54.2852 40.1098C54.0046 40.5765 53.5994 40.9557 53.1152 41.2048L29.1332 53.6458Z" fill="#F4D382"/>
</svg>
