<svg width="16" height="16" viewBox="0 0 16 16" fill="none" xmlns="http://www.w3.org/2000/svg">
<path d="M7.99984 8.00016C8.3665 8.00016 8.6805 7.8695 8.94184 7.60816C9.20317 7.34683 9.33362 7.03305 9.33317 6.66683C9.33317 6.30016 9.2025 5.98616 8.94117 5.72483C8.67984 5.4635 8.36606 5.33305 7.99984 5.3335C7.63317 5.3335 7.31917 5.46416 7.05784 5.7255C6.7965 5.98683 6.66606 6.30061 6.6665 6.66683C6.6665 7.0335 6.79717 7.3475 7.0585 7.60883C7.31984 7.87016 7.63362 8.00061 7.99984 8.00016ZM7.99984 12.9002C9.35539 11.6557 10.3609 10.5251 11.0165 9.50816C11.6721 8.49127 11.9998 7.58861 11.9998 6.80016C11.9998 5.58905 11.6136 4.5975 10.8412 3.8255C10.0687 3.0535 9.12162 2.66727 7.99984 2.66683C6.87761 2.66683 5.93028 3.05305 5.15784 3.8255C4.38539 4.59794 3.99939 5.5895 3.99984 6.80016C3.99984 7.58905 4.32762 8.49194 4.98317 9.50883C5.63873 10.5257 6.64428 11.6562 7.99984 12.9002ZM7.99984 14.6668C6.21095 13.1446 4.87495 11.7308 3.99184 10.4255C3.10873 9.12016 2.66695 7.91172 2.6665 6.80016C2.6665 5.1335 3.20273 3.80572 4.27517 2.81683C5.34762 1.82794 6.58917 1.3335 7.99984 1.3335C9.41095 1.3335 10.6527 1.82794 11.7252 2.81683C12.7976 3.80572 13.3336 5.1335 13.3332 6.80016C13.3332 7.91127 12.8914 9.11972 12.0078 10.4255C11.1243 11.7313 9.78828 13.1451 7.99984 14.6668Z" fill="#68479C"/>
</svg>
