<svg width="16" height="16" viewBox="0 0 16 16" fill="none" xmlns="http://www.w3.org/2000/svg">
<path d="M2.7 14C2.5 14 2.33333 13.9333 2.2 13.8C2.06667 13.6667 2 13.5 2 13.3V10.6C2 10.4444 2.05 10.3082 2.15 10.1913C2.25 10.0744 2.37778 9.99956 2.53333 9.96667L4.83333 9.5C4.98889 9.47778 5.14733 9.49178 5.30867 9.542C5.47 9.59222 5.60044 9.66711 5.7 9.76667L7.26667 11.3333C8.11111 10.8222 8.88333 10.2167 9.58333 9.51667C10.2833 8.81667 10.8667 8.06667 11.3333 7.26667L9.73333 5.63333C9.63333 5.53333 9.56933 5.41933 9.54133 5.29133C9.51333 5.16333 9.51067 5.02178 9.53333 4.86667L9.96667 2.53333C9.98889 2.37778 10.0611 2.25 10.1833 2.15C10.3056 2.05 10.4444 2 10.6 2H13.3C13.5 2 13.6667 2.06667 13.8 2.2C13.9333 2.33333 14 2.5 14 2.7C14 4.13333 13.6804 5.53067 13.0413 6.892C12.4022 8.25333 11.5578 9.45889 10.508 10.5087C9.45822 11.5584 8.25267 12.4029 6.89133 13.042C5.53 13.6811 4.13289 14.0004 2.7 14Z" fill="#68479C"/>
</svg>
